<svg width="179" height="54" viewBox="0 0 179 54" fill="none" xmlns="http://www.w3.org/2000/svg">
<path d="M50.488 35H54.592V17.24H50.488V35ZM63.4701 24.704C64.8381 24.704 65.9901 25.544 65.9901 27.008H60.8541C61.0941 25.52 62.1261 24.704 63.4701 24.704ZM69.8781 30.56H65.5101C65.1741 31.28 64.5261 31.856 63.3741 31.856C62.0541 31.856 60.9741 31.04 60.8301 29.288H70.1181C70.1661 28.88 70.1901 28.472 70.1901 28.088C70.1901 24.008 67.4301 21.416 63.5181 21.416C59.5341 21.416 56.7501 24.056 56.7501 28.304C56.7501 32.552 59.5821 35.192 63.5181 35.192C66.8541 35.192 69.2301 33.176 69.8781 30.56ZM71.5392 28.28C71.5392 32.504 74.1552 35.192 77.4192 35.192C79.4112 35.192 80.8272 34.28 81.5712 33.104V35H85.6752V21.608H81.5712V23.504C80.8512 22.328 79.4352 21.416 77.4432 21.416C74.1552 21.416 71.5392 24.056 71.5392 28.28ZM81.5712 28.304C81.5712 30.44 80.2032 31.616 78.6432 31.616C77.1072 31.616 75.7152 30.416 75.7152 28.28C75.7152 26.144 77.1072 24.992 78.6432 24.992C80.2032 24.992 81.5712 26.168 81.5712 28.304ZM92.7483 28.784C92.7483 26.48 93.8763 25.808 95.8203 25.808H96.9483V21.464C95.1483 21.464 93.6843 22.424 92.7483 23.84V21.608H88.6443V35H92.7483V28.784ZM108.15 35H112.23V27.176C112.23 23.576 110.166 21.464 107.07 21.464C105.27 21.464 103.83 22.256 103.014 23.384V21.608H98.9099V35H103.014V27.728C103.014 25.904 104.022 24.896 105.582 24.896C107.142 24.896 108.15 25.904 108.15 27.728V35ZM114.386 26.552C114.386 31.592 117.89 35.12 122.858 35.12C126.866 35.12 129.89 32.888 130.85 29.24H126.338C125.642 30.68 124.37 31.4 122.81 31.4C120.29 31.4 118.562 29.528 118.562 26.552C118.562 23.576 120.29 21.704 122.81 21.704C124.37 21.704 125.642 22.424 126.338 23.864H130.85C129.89 20.216 126.866 17.96 122.858 17.96C117.89 17.96 114.386 21.512 114.386 26.552ZM146.467 28.304C146.467 24.056 143.443 21.416 139.507 21.416C135.595 21.416 132.547 24.056 132.547 28.304C132.547 32.552 135.523 35.192 139.459 35.192C143.395 35.192 146.467 32.552 146.467 28.304ZM136.723 28.304C136.723 26.024 138.019 24.968 139.507 24.968C140.947 24.968 142.291 26.024 142.291 28.304C142.291 30.56 140.923 31.64 139.459 31.64C137.971 31.64 136.723 30.56 136.723 28.304ZM147.828 28.28C147.828 32.504 150.444 35.192 153.732 35.192C155.7 35.192 157.116 34.304 157.86 33.08V35H161.964V17.24H157.86V23.456C157.044 22.232 155.508 21.416 153.732 21.416C150.444 21.416 147.828 24.056 147.828 28.28ZM157.86 28.304C157.86 30.44 156.492 31.616 154.932 31.616C153.396 31.616 152.004 30.416 152.004 28.28C152.004 26.144 153.396 24.992 154.932 24.992C156.492 24.992 157.86 26.168 157.86 28.304ZM170.837 24.704C172.205 24.704 173.357 25.544 173.357 27.008H168.221C168.461 25.52 169.493 24.704 170.837 24.704ZM177.245 30.56H172.877C172.541 31.28 171.893 31.856 170.741 31.856C169.421 31.856 168.341 31.04 168.197 29.288H177.485C177.533 28.88 177.557 28.472 177.557 28.088C177.557 24.008 174.797 21.416 170.885 21.416C166.901 21.416 164.117 24.056 164.117 28.304C164.117 32.552 166.949 35.192 170.885 35.192C174.221 35.192 176.597 33.176 177.245 30.56Z" fill="#EE5626"/>
<circle cx="20" cy="27" r="19" stroke="url(#paint0_linear_18_2)" stroke-width="2"/>
<path d="M7.188 27.328C7.188 34.888 12.444 40.18 19.896 40.18C25.908 40.18 30.444 36.832 31.884 31.36H25.116C24.072 33.52 22.164 34.6 19.824 34.6C16.044 34.6 13.452 31.792 13.452 27.328C13.452 22.864 16.044 20.056 19.824 20.056C22.164 20.056 24.072 21.136 25.116 23.296H31.884C30.444 17.824 25.908 14.44 19.896 14.44C12.444 14.44 7.188 19.768 7.188 27.328Z" fill="#282828"/>
<defs>
<linearGradient id="paint0_linear_18_2" x1="20" y1="7" x2="20" y2="47" gradientUnits="userSpaceOnUse">
<stop offset="0.505208" stop-color="#EE5626"/>
<stop offset="0.895833" stop-color="#35109F"/>
</linearGradient>
</defs>
</svg>
